HIERARCHY
ROOT Hips
{
	OFFSET 0.000000 0.000000 0.000000
	CHANNELS 6 Xposition Yposition Zposition Zrotation Yrotation Xrotation 
	JOINT LHipJoint
	{
		OFFSET 0.000000 0.000000 0.000000
		CHANNELS 3 Zrotation Yrotation Xrotation
		JOINT LeftUpLeg
		{
			OFFSET 8.178360 -10.767780 5.035740
			CHANNELS 3 Zrotation Yrotation Xrotation
			JOINT LeftLeg
			{
				OFFSET 14.688660 -40.356780 0.000000
				CHANNELS 3 Zrotation Yrotation Xrotation
				JOINT LeftFoot
				{
					OFFSET 15.373200 -42.237540 0.000000
					CHANNELS 3 Zrotation Yrotation Xrotation
					JOINT LeftToeBase
					{
						OFFSET 0.945840 -2.598660 13.935300
						CHANNELS 3 Zrotation Yrotation Xrotation
						End Site
						{
							OFFSET 0.000000 0.000000 0.000000
						}
					}
				}
			}
		}
	}
	JOINT RHipJoint
	{
		OFFSET 0.000000 0.000000 0.000000
		CHANNELS 3 Zrotation Yrotation Xrotation
		JOINT RightUpLeg
		{
			OFFSET -7.833120 -10.767780 5.035740
			CHANNELS 3 Zrotation Yrotation Xrotation
			JOINT RightLeg
			{
				OFFSET -15.255180 -41.913300 0.000000
				CHANNELS 3 Zrotation Yrotation Xrotation
				JOINT RightFoot
				{
					OFFSET -15.409560 -42.337380 0.000000
					CHANNELS 3 Zrotation Yrotation Xrotation
					JOINT RightToeBase
					{
						OFFSET -0.988380 -2.715540 14.178900
						CHANNELS 3 Zrotation Yrotation Xrotation
						End Site
						{
							OFFSET 0.000000 0.000000 0.000000
						}
					}
				}
			}
		}
	}
	JOINT LowerBack
	{
		OFFSET 0.000000 0.000000 0.000000
		CHANNELS 3 Zrotation Yrotation Xrotation
		JOINT Spine
		{
			OFFSET 0.169620 12.213540 -1.160280
			CHANNELS 3 Zrotation Yrotation Xrotation
			JOINT Spine1
			{
				OFFSET 0.340320 12.293100 -0.256500
				CHANNELS 3 Zrotation Yrotation Xrotation
				JOINT Neck
				{
					OFFSET 0.000000 0.000000 0.000000
					CHANNELS 3 Zrotation Yrotation Xrotation
					JOINT Neck1
					{
						OFFSET -0.325020 10.477440 1.032120
						CHANNELS 3 Zrotation Yrotation Xrotation
						JOINT Head
						{
							OFFSET 0.624420 10.568160 -0.743820
							CHANNELS 3 Zrotation Yrotation Xrotation
							End Site
							{
								OFFSET 0.000000 0.000000 0.000000
							}
						}
					}
				}
				JOINT LeftShoulder
				{
					OFFSET 0.000000 0.000000 0.000000
					CHANNELS 3 Zrotation Yrotation Xrotation
					JOINT LeftArm
					{
						OFFSET 20.174460 7.205340 -1.867260
						CHANNELS 3 Zrotation Yrotation Xrotation
						JOINT LeftForeArm
						{
							OFFSET 29.898000 -0.000000 -0.000000
							CHANNELS 3 Zrotation Yrotation Xrotation
							JOINT LeftHand
							{
								OFFSET 20.901360 -0.000000 -0.000000
								CHANNELS 3 Zrotation Yrotation Xrotation
								JOINT LeftFingerBase
								{
									OFFSET 0.000000 0.000000 0.000000
									CHANNELS 3 Zrotation Yrotation Xrotation
									JOINT LeftHandIndex1
									{
										OFFSET 4.291560 -0.000000 -0.000000
										CHANNELS 3 Zrotation Yrotation Xrotation
										End Site
										{
											OFFSET 0.000000 0.000000 0.000000
										}
									}
								}
								JOINT LThumb
								{
									OFFSET 0.000000 0.000000 0.000000
									CHANNELS 3 Zrotation Yrotation Xrotation
									End Site
									{
										OFFSET 0.000000 0.000000 0.000000
									}
								}
							}
						}
					}
				}
				JOINT RightShoulder
				{
					OFFSET 0.000000 0.000000 0.000000
					CHANNELS 3 Zrotation Yrotation Xrotation
					JOINT RightArm
					{
						OFFSET -18.819600 8.244300 -2.427900
						CHANNELS 3 Zrotation Yrotation Xrotation
						JOINT RightForeArm
						{
							OFFSET -31.451400 -0.000000 -0.000000
							CHANNELS 3 Zrotation Yrotation Xrotation
							JOINT RightHand
							{
								OFFSET -20.665020 -0.000000 -0.000000
								CHANNELS 3 Zrotation Yrotation Xrotation
								JOINT RightFingerBase
								{
									OFFSET 0.000000 0.000000 0.000000
									CHANNELS 3 Zrotation Yrotation Xrotation
									JOINT RightHandIndex1
									{
										OFFSET -3.735180 -0.000000 -0.000000
										CHANNELS 3 Zrotation Yrotation Xrotation
										End Site
										{
											OFFSET 0.000000 0.000000 0.000000
										}
									}
								}
								JOINT RThumb
								{
									OFFSET 0.000000 0.000000 0.000000
									CHANNELS 3 Zrotation Yrotation Xrotation
									End Site
									{
										OFFSET 0.000000 0.000000 0.000000
									}
								}
							}
						}
					}
				}
			}
		}
	}
}
MOTION
Frames:	4
Frame Time:	0.0333333
61.340376 106.237980 42.098718 3.402987 -62.800456 1.108733 2.149206 1.864991 1.004808 -14.409131 -7.600872 -22.989333 9.519761 17.140720 58.464285 -0.536152 4.112920 4.464269 0.000400 -0.133200 -0.365900 -3.439339 -2.901570 0.750571 35.811786 7.662258 -0.598142 -0.508678 -4.700609 16.223505 0.786181 -4.600281 -1.146281 -0.420100 -4.160000 11.527400 0.805340 2.860490 4.517201 0.694243 3.496459 -1.712506 1.557390 2.212374 -3.778827 -9.140525 -4.038060 -9.649090 4.510923 -4.749976 17.934385 3.409800 -2.986900 10.955100 -7.845175 3.175316 -2.197380 -85.031253 4.160412 8.757221 9.458588 -17.696301 -1.550685 -1.456275 -3.123251 11.205611 17.365239 22.194055 8.092600 -7.125000 0.000000 0.000000 -12.555600 56.283100 -3.513100 5.715657 -2.070719 -2.124924 84.302191 4.226170 22.689028 -15.560851 22.933658 -4.257641 0.806484 -0.556455 6.144726 -12.576865 12.138067 -2.977700 7.125000 0.000000 0.000000 9.575100 -17.172500 6.411900 
59.651148 106.135992 44.142768 2.773140 -66.499588 2.110507 2.097608 1.725316 0.923583 -12.909703 -9.867406 -24.906473 8.352300 16.625176 54.882674 -0.251578 2.666973 2.267443 0.246700 -3.196300 -8.825600 -3.419565 -2.866515 0.765624 35.422910 8.172566 0.983408 -0.487065 -4.598689 16.127350 0.172773 -1.707890 -1.909783 -1.299400 -7.221700 20.373900 1.606696 2.699518 4.199803 0.659064 3.314945 -1.700015 0.943596 2.115803 -3.445925 -8.439293 -4.228361 -10.411573 4.035135 -5.047093 17.407529 3.025200 -3.067200 10.877500 -7.794530 3.105369 -2.164850 -84.327149 3.413163 9.719773 9.301823 -17.427458 -1.493133 -1.719187 -2.889437 12.611707 18.993894 20.471447 8.357200 -7.125000 0.000000 0.000000 -9.769600 54.760600 -2.359100 5.606445 -2.058147 -2.162062 84.837032 4.351688 25.572634 -16.693789 24.492519 -4.897052 0.856229 -0.504725 4.464613 -12.947854 12.555655 -3.161900 7.125000 0.000000 0.000000 9.292500 -16.757700 6.302700 
57.957036 105.755520 45.894282 3.239790 -69.268554 2.089717 1.964434 1.579233 0.839914 -11.904783 -11.002536 -27.013149 6.647761 15.606786 49.336289 0.092009 1.165227 2.139969 0.315300 -3.609900 -9.981600 -3.392827 -2.817528 0.797935 34.850135 8.461005 1.789203 -0.599160 -4.862525 16.984790 0.067397 -1.399709 -3.425518 -0.556500 -4.778400 13.277500 1.322450 2.483434 4.506972 0.714803 3.015104 -1.844812 1.232081 1.981132 -3.986832 -8.738305 -4.318710 -10.072523 4.027938 -5.081138 16.685407 3.087100 -3.100300 10.524000 -7.755417 3.060935 -2.155628 -83.855848 2.782359 9.988414 9.312020 -17.445382 -1.549151 -1.376664 -2.952705 12.894998 15.841617 21.137408 6.993000 -7.125000 0.000000 0.000000 -13.662700 54.743700 -3.316300 5.482124 -1.974060 -2.199026 84.705628 3.816516 27.770508 -17.692097 25.873094 -5.519596 0.783563 -0.510691 3.292716 -11.994345 13.401642 -3.111000 7.125000 0.000000 0.000000 9.991000 -15.945300 6.970000 
55.967346 105.623604 47.478468 0.360438 -71.643469 4.889136 1.800893 1.419839 0.684992 -9.427244 -12.828626 -28.083452 4.895808 14.255274 43.184657 0.485310 -0.456091 2.263721 0.516700 -4.607400 -12.792000 -3.365137 -2.819789 0.741768 35.373996 6.915748 3.982070 -0.386294 -4.146802 15.104133 0.025753 -1.165119 -3.585275 -0.265500 -3.314700 9.156000 3.123649 2.686318 4.037200 0.464650 3.360316 -1.296092 -0.392261 2.118283 -2.048318 -8.345237 -5.041867 -11.550997 4.555354 -6.108111 15.984878 3.162700 -3.408400 10.618700 -7.741010 2.998795 -2.051690 -82.986945 0.271998 9.347049 9.753411 -18.180096 -1.713377 -1.528197 -2.891307 14.498548 16.785286 21.208394 7.464200 -7.125000 0.000000 0.000000 -12.661700 55.009000 -3.149500 5.366852 -1.912943 -2.085705 86.056394 5.403867 26.772642 -18.405284 26.791967 -5.946888 0.752584 -0.507751 3.782103 -11.909171 13.594026 -3.123300 7.125000 0.000000 0.000000 10.065200 -15.767100 7.062700 
